<svg width="190" height="50" viewBox="122 49 190 50" xmlns="http://www.w3.org/2000/svg" role="img"><title>buffd</title><desc>buffd Wortmarke mit Hexagon-Hub-Symbol</desc><path d="M1314 365Q1314 328 1305.5 287.0Q1297 246 1279.0 205.5Q1261 165 1232.5 128.0Q1204 91 1163.5 62.5Q1123 34 1070.0 17.0Q1017 0 950 0H481Q444 0 403.0 8.5Q362 17 321.5 35.0Q281 53 244.0 81.5Q207 110 178.5 150.5Q150 191 133.0 244.5Q116 298 116 365V1538H376V365Q376 317 406.0 288.5Q436 260 481 260H950Q999 260 1026.5 289.0Q1054 318 1054 365V717Q1054 766 1025.0 793.5Q996 821 950 821H481V1081H950Q987 1081 1028.0 1072.5Q1069 1064 1109.5 1046.0Q1150 1028 1187.0 999.5Q1224 971 1252.0 930.5Q1280 890 1297.0 837.0Q1314 784 1314 717Z" fill="#f4f1f8" transform="translate(126.16,95.88) scale(0.0283,-0.0283)"/><path d="M1304 131Q1304 103 1294.0 79.0Q1284 55 1266.5 37.5Q1249 20 1225.5 10.0Q1202 0 1175 0H587Q539 0 484.5 11.0Q430 22 377.0 46.5Q324 71 274.5 108.5Q225 146 188.0 199.5Q151 253 128.5 323.0Q106 393 106 481V1081H366V481Q366 430 383.5 389.5Q401 349 431.0 320.0Q461 291 501.5 275.5Q542 260 589 260H1044V1081H1304Z" fill="#f4f1f8" transform="translate(166.20,95.88) scale(0.0283,-0.0283)"/><path d="M1079 821H491V1081H1079ZM1079 1290H493Q440 1290 413.0 1263.5Q386 1237 386 1186V0H126V1186Q126 1253 143.0 1306.0Q160 1359 188.5 1399.5Q217 1440 254.0 1468.5Q291 1497 331.5 1515.0Q372 1533 413.0 1541.5Q454 1550 491 1550H1079Z" fill="#f4f1f8" transform="translate(206.59,95.88) scale(0.0283,-0.0283)"/><path d="M1079 821H491V1081H1079ZM1079 1290H493Q440 1290 413.0 1263.5Q386 1237 386 1186V0H126V1186Q126 1253 143.0 1306.0Q160 1359 188.5 1399.5Q217 1440 254.0 1468.5Q291 1497 331.5 1515.0Q372 1533 413.0 1541.5Q454 1550 491 1550H1079Z" fill="#f4f1f8" transform="translate(238.51,95.88) scale(0.0283,-0.0283)"/><path d="M1308 365Q1308 298 1291.0 244.5Q1274 191 1246.0 150.5Q1218 110 1181.0 81.5Q1144 53 1103.5 35.0Q1063 17 1021.5 8.5Q980 0 943 0H474Q407 0 354.0 17.0Q301 34 260.5 62.5Q220 91 191.5 128.0Q163 165 145.0 205.5Q127 246 118.5 287.5Q110 329 110 365V717Q110 817 146.5 886.5Q183 956 237.5 999.5Q292 1043 356.0 1062.0Q420 1081 474 1081H943V821H476Q424 821 397.0 794.5Q370 768 370 717V367Q370 314 396.5 287.0Q423 260 474 260H943Q996 260 1022.0 287.0Q1048 314 1048 365V1538H1308Z" fill="#a855f7" transform="translate(270.42,95.88) scale(0.0283,-0.0283)"/></svg>